<?xml version="1.0" standalone="no"?><!DOCTYPE svg PUBLIC "-//W3C//DTD SVG 1.1//EN" "http://www.w3.org/Graphics/SVG/1.1/DTD/svg11.dtd"><svg class="icon" width="50px" height="50.00px" viewBox="0 0 1024 1024" version="1.1" xmlns="http://www.w3.org/2000/svg"><path d="M584.2 656.7H253.3c-0.3 0-0.5-0.2-0.5-0.5V399c0-0.3 0.2-0.5 0.5-0.5h330.9c0.3 0 0.5 0.2 0.5 0.5v257.2c0 0.3-0.2 0.5-0.5 0.5zM725.6 652.3l-95.8-63.9c-5.1-3.4-8.2-9.2-8.2-15.3v-90.9c0-6.2 3.1-11.9 8.2-15.3l95.8-63.9c2.8-1.9 6.6 0.1 6.6 3.5v242.3c0 3.4-3.7 5.4-6.6 3.5z" fill="#FFFFFF" /><path d="M583.7 419.5L483.1 580.3c-5.7 9.2-19 9.4-25 0.4l-49.7-74.6c-10.2-15.3-32.8-15.3-43 0l-93.6 140.5c-3.8 5.8 0.3 13.5 7.2 13.5h464.7c6.8 0 11-7.5 7.4-13.3L608.9 419.5c-5.8-9.3-19.4-9.3-25.2 0z" fill="#FFFFFF" /><path d="M383.2 395.6m-42.8 0a42.8 42.8 0 1 0 85.6 0 42.8 42.8 0 1 0-85.6 0Z" fill="#FFFFFF" /><path d="M474.2 381.4H60.9V203c0-25.9 21-47 47-47h246.6c36.9 0 72.7 12.8 101.2 36.1l93.6 76.6-75.1 112.7z" fill="#F7BF46" /><path d="M961.4 869.8H62.1c-0.7 0-1.2-0.5-1.2-1.2V268.7h900.5c0.7 0 1.2 0.5 1.2 1.2v598.7c0 0.7-0.6 1.2-1.2 1.2z" fill="#FFD553" /></svg>