<?xml version="1.0" standalone="no"?><!DOCTYPE svg PUBLIC "-//W3C//DTD SVG 1.1//EN" "http://www.w3.org/Graphics/SVG/1.1/DTD/svg11.dtd"><svg class="icon" width="50px" height="50.00px" viewBox="0 0 1024 1024" version="1.1" xmlns="http://www.w3.org/2000/svg"><path d="M512 0l409.6 409.6v512a102.4 102.4 0 0 1-102.4 102.4H204.8a102.4 102.4 0 0 1-102.4-102.4V102.4a102.4 102.4 0 0 1 102.4-102.4h307.2z" fill="#FFC53D" /><path d="M512 0l409.6 409.6H614.4a102.4 102.4 0 0 1-102.4-102.4V0z" fill="#FFEBA5" /><path d="M204.8 614.4m25.6 0l563.2 0q25.6 0 25.6 25.6l0 0q0 25.6-25.6 25.6l-563.2 0q-25.6 0-25.6-25.6l0 0q0-25.6 25.6-25.6Z" fill="#FFFFFF" /><path d="M204.8 768m25.6 0l563.2 0q25.6 0 25.6 25.6l0 0q0 25.6-25.6 25.6l-563.2 0q-25.6 0-25.6-25.6l0 0q0-25.6 25.6-25.6Z" fill="#FFFFFF" /></svg>