<?xml version="1.0" standalone="no"?><!DOCTYPE svg PUBLIC "-//W3C//DTD SVG 1.1//EN" "http://www.w3.org/Graphics/SVG/1.1/DTD/svg11.dtd"><svg class="icon" width="50px" height="50.00px" viewBox="0 0 1024 1024" version="1.1" xmlns="http://www.w3.org/2000/svg"><path d="M856.289694 766.204121L65.279431 851.554263V292.613172h732.148364c32.558545 0 58.978263 26.424889 58.978262 58.978262v414.612687h-0.116363zM559.632239 292.613172c0-54.61204-44.233697-98.845737-98.850909-98.845738H65.279431v98.845738h494.352808" fill="#CE9F06" /><path d="M164.125168 337.675636h593.318788v296.53592L164.125168 838.10004z" fill="#FFFFFF" /><path d="M860.683067 828.840081l94.452364-238.624323c10.563232-27.243313-3.011232-49.422222-30.259717-49.422223H232.711189c-27.249778 0-58.022788 22.178909-68.586021 49.422223l-94.407111 238.507959c-13.035313 33.618747 3.602101 60.983596 37.33592 60.983596h669.16202c33.574788 0.113778 71.431758-27.249778 84.46707-60.867232z m0 0" fill="#FFCD2C" /></svg>